<?xml version="1.0" standalone="no"?>
<!DOCTYPE svg PUBLIC "-//W3C//DTD SVG 20010904//EN"
 "http://www.w3.org/TR/2001/REC-SVG-20010904/DTD/svg10.dtd">
<svg version="1.0" xmlns="http://www.w3.org/2000/svg"
 width="96px" height="16px" viewBox="0 0 1256.000000 219.000000"
 preserveAspectRatio="xMidYMid meet">

<g transform="translate(0.000000,219.000000) scale(0.100000,-0.100000)"
fill="#000000" stroke="none">
<path d="M5030 2179 c-225 -26 -393 -130 -469 -293 -46 -99 -56 -156 -56 -326
1 -230 38 -345 140 -439 69 -64 144 -93 425 -166 273 -72 313 -87 353 -135 40
-47 50 -94 46 -221 -5 -128 -21 -170 -83 -208 -92 -57 -346 -75 -661 -47 -99
9 -185 16 -192 16 -10 0 -13 -32 -13 -129 l0 -129 39 -15 c122 -49 315 -77
541 -77 444 0 631 96 697 357 25 99 25 447 0 553 -33 140 -98 220 -228 279
-36 16 -182 63 -326 105 -288 82 -330 100 -365 148 -21 30 -23 43 -23 153 0
106 3 124 22 155 28 45 81 75 157 89 110 20 476 12 649 -15 l38 -6 -3 138 -3
138 -30 8 c-81 24 -272 58 -375 67 -129 12 -172 12 -280 0z"/>
<path d="M9800 2184 c-255 -31 -415 -124 -496 -288 -53 -108 -67 -194 -61
-366 8 -209 41 -311 129 -400 66 -66 156 -102 438 -176 140 -36 269 -73 285
-81 91 -46 119 -114 113 -271 -3 -91 -7 -114 -28 -150 -32 -56 -113 -97 -225
-112 -122 -16 -370 -10 -627 15 l-68 7 0 -130 0 -131 56 -20 c121 -46 301 -71
514 -71 330 0 500 46 610 167 88 96 115 211 114 478 -1 258 -29 367 -119 460
-71 73 -127 95 -489 200 -341 98 -349 104 -354 278 -3 101 -1 117 20 157 19
36 34 51 82 75 59 29 63 29 254 33 170 4 381 -7 480 -24 l32 -6 0 135 0 135
-32 11 c-166 52 -494 91 -628 75z"/>
<path d="M12 1098 l3 -1043 173 -3 172 -2 0 886 c0 488 3 884 7 881 3 -4 34
-96 68 -204 34 -109 120 -377 191 -596 l129 -397 262 0 262 0 65 203 c209 652
247 772 276 872 18 61 36 114 41 120 5 5 9 -367 9 -878 l0 -887 173 2 172 3 3
1043 2 1042 -302 -2 -302 -3 -198 -624 c-109 -343 -200 -626 -203 -629 -7 -7
3 -36 -204 638 l-189 615 -306 3 -306 2 2 -1042z"/>
<path d="M2540 1416 c0 -429 4 -765 10 -825 19 -184 67 -300 164 -397 122
-122 278 -173 551 -181 432 -13 671 104 767 374 45 129 48 182 48 991 l0 762
-175 0 -175 0 0 -757 c0 -813 0 -812 -51 -904 -31 -55 -96 -104 -167 -126 -90
-28 -324 -25 -418 4 -116 37 -171 106 -193 243 -7 41 -11 334 -11 803 l0 737
-175 0 -175 0 0 -724z"/>
<path d="M6240 1100 l0 -1039 170 -3 170 -3 0 1043 0 1042 -170 0 -170 0 0
-1040z"/>
<path d="M7120 1095 l0 -1045 170 0 170 0 0 880 c0 499 4 880 9 880 5 0 14
-15 22 -32 7 -18 134 -310 282 -648 148 -338 312 -714 365 -835 53 -121 100
-226 105 -232 7 -10 77 -13 288 -13 l279 0 0 1045 0 1045 -170 0 -170 0 -1
-882 -1 -883 -28 60 c-16 33 -113 256 -216 495 -103 239 -262 608 -354 820
l-166 385 -292 3 -292 2 0 -1045z"/>
<path d="M11400 2136 c0 -2 -151 -468 -335 -1037 -184 -568 -335 -1036 -335
-1041 0 -14 368 -10 377 5 4 6 44 134 88 282 l81 270 356 3 357 2 41 -132 c23
-73 63 -200 89 -283 l47 -150 192 -3 c106 -1 192 1 192 4 0 4 -76 239 -169
523 -93 284 -246 751 -341 1039 l-171 522 -234 0 c-129 0 -235 -2 -235 -4z
m365 -760 c68 -236 122 -433 119 -438 -6 -10 -501 -11 -507 0 -2 4 51 196 119
427 143 492 134 463 140 450 2 -5 60 -203 129 -439z"/>
</g>
</svg>
